<svg width="23" height="24" viewBox="0 0 23 24" fill="none" xmlns="http://www.w3.org/2000/svg">
<path d="M20.8695 10.9588V4.59327C20.8695 3.18911 20.2704 2.62744 18.782 2.62744H15.0001C13.5117 2.62744 12.9126 3.18911 12.9126 4.59327V10.9588C12.9126 12.363 13.5117 12.9247 15.0001 12.9247H18.782C20.2704 12.9247 20.8695 12.363 20.8695 10.9588Z" fill="#7F29FF"/>
<path d="M20.8695 19.3837V17.6987C20.8695 16.2946 20.2704 15.7329 18.782 15.7329H15.0001C13.5117 15.7329 12.9126 16.2946 12.9126 17.6987V19.3837C12.9126 20.7879 13.5117 21.3496 15.0001 21.3496H18.782C20.2704 21.3496 20.8695 20.7879 20.8695 19.3837Z" fill="#7F29FF"/>
<path d="M10.1039 13.0186V19.3841C10.1039 20.7883 9.50481 21.35 8.01639 21.35H4.2345C2.74608 21.35 2.14697 20.7883 2.14697 19.3841V13.0186C2.14697 11.6144 2.74608 11.0527 4.2345 11.0527H8.01639C9.50481 11.0527 10.1039 11.6144 10.1039 13.0186Z" fill="#7F29FF"/>
<path d="M10.1039 4.59327V6.27828C10.1039 7.68244 9.50481 8.24411 8.01639 8.24411H4.2345C2.74608 8.24411 2.14697 7.68244 2.14697 6.27828V4.59327C2.14697 3.18911 2.74608 2.62744 4.2345 2.62744H8.01639C9.50481 2.62744 10.1039 3.18911 10.1039 4.59327Z" fill="#7F29FF"/>
</svg>
