<svg width="35" height="35" viewBox="0 0 35 35" fill="none" xmlns="http://www.w3.org/2000/svg">
<path d="M0 2.50718C0 1.12287 1.15065 0 2.57013 0H32.4299C33.8493 0 35 1.12288 35 2.50718V32.4928C35 33.8776 33.8493 35 32.4299 35L2.57013 35C1.15065 35 0 33.8776 0 32.4928V2.50718ZM10.8136 29.2986V13.4942H5.56053V29.2986H10.8136ZM8.18706 11.3363C10.0189 11.3363 11.1591 10.1227 11.1591 8.60607C11.125 7.05527 10.0189 5.87534 8.22182 5.87534C6.42489 5.87534 5.25 7.05527 5.25 8.60607C5.25 10.1227 6.38994 11.3363 8.15282 11.3363H8.18706ZM18.9249 29.2986V20.4727C18.9249 20.0004 18.9591 19.5285 19.0978 19.1909C19.4775 18.2471 20.3419 17.2697 21.7931 17.2697C23.6939 17.2697 24.4543 18.719 24.4543 20.8436V29.2986H29.7069V20.2366C29.7069 15.3821 27.1153 13.1233 23.6592 13.1233C20.8726 13.1233 19.6232 14.6549 18.9251 15.7318V15.7862H18.89C18.9015 15.7682 18.9132 15.7501 18.9251 15.7318V13.4942H13.672C13.741 14.9771 13.672 29.2986 13.672 29.2986H18.9249Z" fill="#F5F5F5"/>
</svg>
