<svg width="96" height="96" viewBox="0 0 96 96" fill="none" xmlns="http://www.w3.org/2000/svg">
<path d="M30 72C25.6 72 21.8333 70.4333 18.7 67.3C15.5667 64.1667 14 60.4 14 56V39.7C14 36.3 15.0667 33.3167 17.2 30.75C19.3333 28.1833 22.0667 26.6 25.4 26C29.2 25.2667 32.9667 24.75 36.7 24.45C40.4333 24.15 44.2 24 48 24C51.8 24 55.5833 24.15 59.35 24.45C63.1167 24.75 66.8667 25.2667 70.6 26C73.9333 26.6667 76.6667 28.2667 78.8 30.8C80.9333 33.3333 82 36.3 82 39.7V56C82 60.4 80.4333 64.1667 77.3 67.3C74.1667 70.4333 70.4 72 66 72H62C61.1333 72 60.2667 71.95 59.4 71.85C58.5333 71.75 57.7 71.5333 56.9 71.2L50.5 69C49.7 68.6667 48.8667 68.5 48 68.5C47.1333 68.5 46.3 68.6667 45.5 69L39.1 71.2C38.3 71.5333 37.4667 71.75 36.6 71.85C35.7333 71.95 34.8667 72 34 72H30ZM30 64H34C34.4667 64 34.9167 63.9667 35.35 63.9C35.7833 63.8333 36.2 63.7333 36.6 63.6C38.5333 63 40.4167 62.3667 42.25 61.7C44.0833 61.0333 46 60.7 48 60.7C50 60.7 51.9333 61.0167 53.8 61.65C55.6667 62.2833 57.5333 62.9333 59.4 63.6C59.8 63.7333 60.2167 63.8333 60.65 63.9C61.0833 63.9667 61.5333 64 62 64H66C68.2 64 70.0833 63.2167 71.65 61.65C73.2167 60.0833 74 58.2 74 56V39.7C74 38.2333 73.5333 36.9667 72.6 35.9C71.6667 34.8333 70.5 34.1333 69.1 33.8C65.6333 33.0667 62.15 32.5833 58.65 32.35C55.15 32.1167 51.6 32 48 32C44.4 32 40.8667 32.1333 37.4 32.4C33.9333 32.6667 30.4333 33.1333 26.9 33.8C25.5 34.0667 24.3333 34.75 23.4 35.85C22.4667 36.95 22 38.2333 22 39.7V56C22 58.2 22.7833 60.0833 24.35 61.65C25.9167 63.2167 27.8 64 30 64ZM4 56V40H10V56H4ZM86 56V40H92V56H86Z" fill="white"/>
</svg>
