<svg width="48" height="48" viewBox="0 0 48 48" fill="none" xmlns="http://www.w3.org/2000/svg">
<path d="M12 39.5C8.53333 38.6 5.66667 36.7333 3.4 33.9C1.13333 31.0667 0 27.7667 0 24C0 20.2333 1.13333 16.9333 3.4 14.1C5.66667 11.2667 8.53333 9.4 12 8.5V12.7C9.63333 13.5 7.70833 14.9333 6.225 17C4.74167 19.0667 4 21.4 4 24C4 26.6 4.74167 28.9333 6.225 31C7.70833 33.0667 9.63333 34.5 12 35.3V39.5ZM28 40C23.5667 40 19.7917 38.4417 16.675 35.325C13.5583 32.2083 12 28.4333 12 24C12 19.5667 13.5583 15.7917 16.675 12.675C19.7917 9.55833 23.5667 8 28 8C30.2 8 32.2667 8.41667 34.2 9.25C36.1333 10.0833 37.8333 11.2333 39.3 12.7L36.5 15.5C35.4 14.4 34.125 13.5417 32.675 12.925C31.225 12.3083 29.6667 12 28 12C24.6667 12 21.8333 13.1667 19.5 15.5C17.1667 17.8333 16 20.6667 16 24C16 27.3333 17.1667 30.1667 19.5 32.5C21.8333 34.8333 24.6667 36 28 36C29.6667 36 31.225 35.6917 32.675 35.075C34.125 34.4583 35.4 33.6 36.5 32.5L39.3 35.3C37.8333 36.7667 36.1333 37.9167 34.2 38.75C32.2667 39.5833 30.2 40 28 40ZM40 32L37.2 29.2L40.4 26H26V22H40.4L37.2 18.8L40 16L48 24L40 32Z" fill="#F5F5F5"/>
</svg>
