<svg width="35" height="35" viewBox="0 0 35 35" fill="none" xmlns="http://www.w3.org/2000/svg">
<path d="M17.6118 4.37207C17.6243 4.3721 17.6377 4.37213 17.6521 4.37216L17.807 4.37265C19.6046 4.37925 28.7158 4.44529 31.1724 5.10572C32.6783 5.50963 33.8641 6.69997 34.2666 8.21095C34.4882 9.0411 34.6426 10.1445 34.7503 11.2792L34.7712 11.5065C34.7881 11.6962 34.8037 11.8863 34.8182 12.0756L34.835 12.3025C34.9788 14.3021 34.9956 16.1733 34.9976 16.5827L34.9978 16.6379C34.9978 16.6424 34.9978 16.6498 34.9978 16.6498V16.6808C34.9978 16.6808 34.9978 16.6882 34.9978 16.6927L34.9976 16.748C34.9955 17.1728 34.9775 19.172 34.8182 21.2551L34.8003 21.4827L34.7812 21.7104C34.6728 22.9629 34.5104 24.2066 34.2666 25.1197C33.8641 26.6307 32.6783 27.8213 31.1724 28.2249C28.6339 28.9077 18.9898 28.9554 17.6521 28.9588L17.5491 28.959C17.5406 28.959 17.5332 28.959 17.5268 28.959L17.4848 28.959C17.4848 28.959 17.4751 28.959 17.4687 28.959L17.3435 28.9588C16.6674 28.9571 13.8699 28.9441 10.9403 28.8434L10.5657 28.8301C10.5032 28.8278 10.4407 28.8255 10.3782 28.8231L10.0032 28.8083L9.62906 28.7924C7.20201 28.6859 4.88796 28.5112 3.82345 28.2249C2.31753 27.8213 1.13169 26.6307 0.729206 25.1197C0.485374 24.2066 0.322819 22.9629 0.214449 21.7104L0.195336 21.4827L0.177381 21.2551C0.02379 19.2477 0.00149453 17.3183 -0.00174192 16.8005L-0.00212866 16.7264C-0.0021558 16.7197 -0.00217842 16.7136 -0.00219727 16.7079V16.6227C-0.00217842 16.6171 -0.0021558 16.611 -0.00212866 16.6043L-0.00174192 16.5302C0.0011892 16.0612 0.019753 14.4345 0.137324 12.6406L0.152542 12.4155C0.155166 12.3779 0.157835 12.3402 0.160549 12.3025L0.177381 12.0756C0.191871 11.8863 0.207529 11.6962 0.22445 11.5065L0.245368 11.2792C0.353046 10.1445 0.50754 9.0411 0.729206 8.21095C1.13169 6.69997 2.31753 5.50963 3.82345 5.10572C4.88796 4.81953 7.20201 4.64496 9.62906 4.53847L10.0032 4.52262L10.3782 4.50781C10.4407 4.50542 10.5032 4.50308 10.5657 4.50078L10.9403 4.48746C13.6829 4.39331 16.3097 4.37587 17.1886 4.37265L17.3435 4.37216C17.3578 4.37213 17.3713 4.3721 17.3837 4.37207H17.6118ZM13.9979 11.3966V21.9341L23.0907 16.6656L13.9979 11.3966Z" fill="#F5F5F5"/>
</svg>
